PathFileType	4	(X/Y/Z)	/Users/itak/Documents/Research/Walk-IL/dataset/trc/00002_00004.trc
DataRate	CameraRate	NumFrames	NumMarkers	Units	OrigDataRate	OrigDataStartFrame	OrigNumFrames
100.000000	100.000000	4	54	mm	100.000000	398	531
Frame#	Time	RPSI			LPSI			L3			STRN			T10			C7			CLAV			RBAK			LBAK			LSHO			LUPA			LAEL			LAOL			LWTS			LWPS			LFRA			LIFD			LHPS			LHTS			RSHO			RUPA			RAEL			RAOL			RWTS			RWPS			RFRA			RIFD			RHTS			RHPS			RBHD			LFHD			RFHD			LBHD			LHIP			RHIP			RASI			LASI			LKNE			LTHI			LANK			LTIP			LTOE			LMT1			LMT5			LHEE			RKNE			RTHI			RANK			RTIP			RTOE			RMT1			RMT5			RHEE			*53			
		X1	Y1	Z1	X2	Y2	Z2	X3	Y3	Z3	X4	Y4	Z4	X5	Y5	Z5	X6	Y6	Z6	X7	Y7	Z7	X8	Y8	Z8	X9	Y9	Z9	X10	Y10	Z10	X11	Y11	Z11	X12	Y12	Z12	X13	Y13	Z13	X14	Y14	Z14	X15	Y15	Z15	X16	Y16	Z16	X17	Y17	Z17	X18	Y18	Z18	X19	Y19	Z19	X20	Y20	Z20	X21	Y21	Z21	X22	Y22	Z22	X23	Y23	Z23	X24	Y24	Z24	X25	Y25	Z25	X26	Y26	Z26	X27	Y27	Z27	X28	Y28	Z28	X29	Y29	Z29	X30	Y30	Z30	X31	Y31	Z31	X32	Y32	Z32	X33	Y33	Z33	X34	Y34	Z34	X35	Y35	Z35	X36	Y36	Z36	X37	Y37	Z37	X38	Y38	Z38	X39	Y39	Z39	X40	Y40	Z40	X41	Y41	Z41	X42	Y42	Z42	X43	Y43	Z43	X44	Y44	Z44	X45	Y45	Z45	X46	Y46	Z46	X47	Y47	Z47	X48	Y48	Z48	X49	Y49	Z49	X50	Y50	Z50	X51	Y51	Z51	X52	Y52	Z52	X53	Y53	Z53	X54	Y54	Z54	

399	3.98	419.9605407714844	1040.662719726562	-238.0865783691406	409.4604187011719	1040.168334960938	-401.7437744140625	408.3386535644531	1110.523071289062	-327.24853515625	628.8800659179688	1304.498657226562	-335.2319641113281	380.1497802734375	1254.50732421875	-333.8645935058594	424.6555480957031	1521.815673828125	-355.8654479980469	584.2163696289062	1429.388427734375	-345.4371643066406	372.0541381835938	1388.371948242188	-270.3395385742188	408.0681457519531	1476.82470703125	-451.7073059082031	512.0694580078125	1480.717041015625	-525.008544921875	477.4429321289062	1354.458129882812	-599.3159790039062	464.91064453125	1138.374389648438	-618.9304809570312	410.1431274414062	1129.091430664062	-528.8530883789062	554.732177734375	888.5665283203125	-561.89306640625	475.9149780273438	871.557373046875	-599.9253540039062	475.5135803222656	1022.361755371094	-623.0172119140625	586.3094482421875	706.9927978515625	-540.2034301757812	511.1143188476562	782.887451171875	-598.8071899414062	577.1112670898438	795.5542602539062	-575.3204345703125	502.0341491699219	1513.940551757812	-180.4931793212891	486.8013610839844	1445.891845703125	-105.4537734985352	439.25634765625	1182.10302734375	-70.13445281982422	439.3616333007812	1149.107788085938	-165.0587615966797	564.2642822265625	920.328857421875	-84.10769653320312	498.1001586914062	909.0797729492188	-21.24142074584961	450.0255737304688	1106.765014648438	-50.3356819152832	581.051025390625	736.2825927734375	-93.12876892089844	596.9453735351562	811.3953247070312	-63.66872787475586	539.1066284179688	808.411376953125	-16.24368095397949	492.1431884765625	1708.02685546875	-417.7852783203125	663.849853515625	1705.353271484375	-282.5226135253906	671.3504028320312	1708.272216796875	-380.784912109375	488.9365844726562	1699.087280273438	-273.8312377929688	510.8944702148438	949.6647338867188	-513.4950561523438	544.537841796875	937.7452392578125	-143.0540466308594	640.7643432617188	977.3599853515625	-216.7453460693359	625.75146484375	998.539794921875	-451.8397827148438	656.3968505859375	521.9373168945312	-446.0365295410156	600.4284057617188	648.6585693359375	-491.0893249511719	553.7061767578125	31.04643058776855	-429.6734924316406	583.2157592773438	275.6884460449219	-455.0512390136719	765.7152709960938	32.42864227294922	-342.18408203125	706.4188232421875	40.79938888549805	-333.8914184570312	679.4299926757812	31.05617141723633	-438.3187866210938	480.9488830566406	40.32505416870117	-381.1708679199219	612.0375366210938	498.2742614746094	-161.2901763916016	583.113525390625	774.7830810546875	-143.8157958984375	190.4146423339844	215.6580657958984	-161.938720703125	524.232177734375	399.1145324707031	-155.8011779785156	340.9862976074219	48.2153205871582	-200.9538879394531	300.6592102050781	95.13912200927734	-233.1339263916016	280.2962036132812	100.4116058349609	-137.0594024658203	158.2859802246094	258.0926208496094	-208.1305847167969	nan	nan	nan	
400	3.99	428.4068908691406	1041.411376953125	-238.7297821044922	417.50537109375	1040.620361328125	-402.222900390625	416.3856201171875	1111.386352539062	-328.0802612304688	636.93505859375	1305.565307617188	-336.2957763671875	388.1682434082031	1255.398315429688	-334.831787109375	432.6821899414062	1522.7099609375	-356.8438110351562	592.2194213867188	1430.473876953125	-346.4580688476562	380.0243530273438	1389.2587890625	-271.3741760253906	416.032470703125	1477.794677734375	-452.6911926269531	520.0757446289062	1481.76904296875	-525.9794921875	485.6875610351562	1355.569213867188	-600.4422607421875	473.7392578125	1139.48876953125	-620.341552734375	418.8309326171875	1129.893188476562	-530.3997192382812	564.3800048828125	889.918212890625	-563.6575317382812	485.6824340820312	872.7120361328125	-601.8108520507812	484.8027038574219	1023.555480957031	-624.6264038085938	596.4999389648438	708.3017578125	-542.2728881835938	521.220947265625	784.1830444335938	-600.8463134765625	587.1396484375	797.0598754882812	-577.3074340820312	509.9942932128906	1514.848022460938	-181.4675140380859	494.7203063964844	1446.793823242188	-106.4770660400391	447.3386535644531	1182.947631835938	-71.22183990478516	447.462158203125	1150.012084960938	-166.1391448974609	573.3868408203125	921.675048828125	-85.53549957275391	507.2477722167969	910.0109252929688	-22.68946266174316	458.3515319824219	1107.555419921875	-51.45610046386719	591.1181640625	737.7571411132812	-94.84832000732422	606.6417846679688	812.8933715820312	-65.27500152587891	548.7974243164062	809.530517578125	-17.85124778747559	500.4574279785156	1708.9794921875	-418.7868347167969	672.0447387695312	1706.06982421875	-283.370361328125	679.6395263671875	1708.955810546875	-381.6307373046875	497.1212463378906	1700.06201171875	-274.8053283691406	517.9175415039062	950.025146484375	-514.3040161132812	553.667724609375	939.1813354492188	-143.9344177246094	649.3178100585938	978.8363647460938	-218.3515014648438	633.2258911132812	999.29833984375	-453.4286193847656	659.37841796875	521.0620727539062	-447.62109375	604.5208740234375	648.3602294921875	-492.15087890625	553.7057495117188	31.00829124450684	-429.6953735351562	584.2470703125	275.4448547363281	-455.6884155273438	765.795654296875	32.41553115844727	-342.34716796875	706.4093017578125	40.86214065551758	-334.0786743164062	679.4924926757812	30.87717056274414	-438.5535888671875	480.9395141601562	40.3642463684082	-381.1767272949219	627.7816162109375	500.6834716796875	-162.8158721923828	594.3673706054688	776.7120971679688	-144.6086730957031	210.2372741699219	212.6308746337891	-163.2101593017578	541.1948852539062	400.8882446289062	-157.1182403564453	365.1493225097656	48.1428337097168	-198.5508728027344	323.7588500976562	93.50457763671875	-231.6991577148438	302.9412231445312	100.2104873657227	-135.8786010742188	177.1043090820312	253.4297943115234	-210.2650909423828	nan	nan	nan	
401	4	436.8646545410156	1042.126953125	-239.2693786621094	425.5330200195312	1041.041137695312	-402.5747680664062	424.39501953125	1112.214477539062	-328.8202209472656	644.9530639648438	1306.5830078125	-337.3672790527344	396.1264343261719	1256.238159179688	-335.7370910644531	440.6610412597656	1523.555297851562	-357.7709655761719	600.1810913085938	1431.514404296875	-347.4699096679688	387.975830078125	1390.095581054688	-272.3482360839844	423.9331359863281	1478.716186523438	-453.6174621582031	527.9981079101562	1482.791748046875	-526.9166870117188	493.8006896972656	1356.662353515625	-601.5354614257812	482.3926391601562	1140.580200195312	-621.700439453125	427.3804016113281	1130.67724609375	-531.862060546875	573.9432373046875	891.2890625	-565.3583374023438	495.3601684570312	873.854736328125	-603.5962524414062	493.9332885742188	1024.72705078125	-626.173095703125	606.7487182617188	709.7076416015625	-544.2830810546875	531.2630004882812	785.4750366210938	-602.777099609375	597.1061401367188	798.57373046875	-579.2078247070312	517.9605712890625	1515.695434570312	-182.4102172851562	502.65771484375	1447.643676757812	-107.4586563110352	455.4132995605469	1183.763061523438	-72.18931579589844	455.4830322265625	1150.8740234375	-167.0823211669922	582.5057373046875	923.0011596679688	-86.93536376953125	516.4893188476562	910.9216918945312	-24.02608489990234	466.6890869140625	1108.315795898438	-52.45906829833984	601.1629638671875	739.2213745117188	-96.56878662109375	616.3507690429688	814.3742065429688	-66.90034484863281	558.5840454101562	810.6312866210938	-19.39754295349121	508.7201538085938	1709.89306640625	-419.72802734375	680.2015380859375	1706.721923828125	-284.1697387695312	687.8820190429688	1709.591796875	-382.4289245605469	505.2701721191406	1700.97607421875	-275.7213439941406	524.7810668945312	950.347412109375	-515.0254516601562	562.8123168945312	940.5830688476562	-144.74658203125	657.82763671875	980.2535400390625	-219.9617004394531	640.60791015625	999.9677124023438	-455.0193786621094	662.1716918945312	520.1845703125	-449.2273254394531	608.3812866210938	648.0507202148438	-493.1902160644531	553.70703125	30.96848106384277	-429.716796875	585.1838989257812	275.2200317382812	-456.3353881835938	765.8782958984375	32.4006462097168	-342.50146484375	706.3997802734375	40.93111038208008	-334.2636413574219	679.5499267578125	30.69314575195312	-438.7958984375	480.9360961914062	40.42670440673828	-381.1817016601562	643.2489013671875	503.1477966308594	-164.4077301025391	605.5579223632812	778.631591796875	-145.3430786132812	230.6762237548828	208.3446960449219	-164.4723663330078	558.0425415039062	402.5049438476562	-158.5058288574219	390.405517578125	47.62887573242188	-196.5887451171875	347.83544921875	91.39089965820312	-230.5659790039062	326.5660705566406	99.20125579833984	-135.0382232666016	196.4133148193359	247.4384918212891	-212.2471923828125	nan	nan	nan	
402	4.01	445.3175354003906	1042.792236328125	-239.7055511474609	433.505859375	1041.435791015625	-402.8121948242188	432.35302734375	1112.9970703125	-329.4656066894531	652.9366455078125	1307.530517578125	-338.4445190429688	404.0282592773438	1257.017456054688	-336.5885009765625	448.6000061035156	1524.341186523438	-358.6521301269531	608.1085205078125	1432.483642578125	-348.4674377441406	395.9112243652344	1390.868530273438	-273.26513671875	431.7789001464844	1479.574829101562	-454.4921264648438	535.845703125	1483.763061523438	-527.8212890625	501.7910766601562	1357.71533203125	-602.5975341796875	490.8674621582031	1141.630249023438	-623.0164184570312	435.7894592285156	1131.4248046875	-533.2581176757812	583.4163208007812	892.6691284179688	-566.9857177734375	504.94921875	874.9675903320312	-605.2803955078125	502.8932800292969	1025.854125976562	-627.6629028320312	617.0614013671875	711.2081298828125	-546.2034301757812	541.2464599609375	786.7476196289062	-604.5894165039062	607.0135498046875	800.0892944335938	-581.0018310546875	525.9262084960938	1516.464965820312	-183.3268432617188	510.6152954101562	1448.422973632812	-108.400146484375	463.48876953125	1184.527709960938	-73.05001068115234	463.4390258789062	1151.67333984375	-167.908203125	591.6170043945312	924.2794189453125	-88.29354095458984	525.802978515625	911.7916259765625	-25.25525665283203	475.0386657714844	1109.027709960938	-53.35791015625	611.1632690429688	740.6412963867188	-98.26367950439453	626.06689453125	815.81005859375	-68.510986328125	568.4362182617188	811.692626953125	-20.87037658691406	516.9301147460938	1710.7470703125	-420.6089172363281	688.3169555664062	1707.306518554688	-284.9236755371094	696.0733032226562	1710.178833007812	-383.1823425292969	513.3833618164062	1701.8095703125	-276.584228515625	531.5018310546875	950.6329956054688	-515.6629028320312	571.9756469726562	941.9254760742188	-145.4989929199219	666.2965698242188	981.588623046875	-221.5695190429688	647.9061889648438	1000.532958984375	-456.6082763671875	664.797607421875	519.3016967773438	-450.8141479492188	612.0503540039062	647.7399291992188	-494.1927185058594	553.7113037109375	30.92778968811035	-429.7367858886719	586.05078125	275.0152282714844	-456.9876098632812	765.960693359375	32.37842178344727	-342.6432800292969	706.39306640625	41.00037002563477	-334.4428405761719	679.60107421875	30.50246620178223	-439.0469970703125	480.9383850097656	40.51682281494141	-381.1889038085938	658.447509765625	505.6369323730469	-166.0551452636719	616.7008056640625	780.521240234375	-146.0347442626953	251.7266235351562	202.9035034179688	-165.7316131591797	574.7705688476562	403.9375305175781	-159.9430084228516	416.643310546875	46.72714233398438	-195.0341033935547	372.8457946777344	88.88873291015625	-229.7158203125	351.1007385253906	97.49627685546875	-134.4984283447266	216.2405548095703	240.2245025634766	-214.1005096435547	nan	nan	nan	
